# xmcd CD database file
# Copyright (C) 1993-1996 Ti Kan
#
# Track frame offsets:
#	150
#	10155
#	21037
#	33790
#	43055
#	53070
#	65377
#	77365
#	89777
#	99525
#	111437
#	122840
#	132712
#	141015
#	151195
#	163055
#	172440
#	182062
#	191607
#	203297
#	212745
#	222502
#	232732
#	246252
#	255145
#	264055
#	272145
#	282972
#	295440
#
# Disc length: 4172 seconds
#
# Revision: 2
# Processed by: cddbd v1.4PL0 Copyright (c) Steve Scherf et al.
# Submitted via: Gronk 1.4
#
DISCID=a2104a1d
DTITLE=Johnny Cash - The essential Johnny Cash (1955-1983)
DYEAR=1900
DGENRE=country
TTITLE0=Hey Porter
TTITLE1=Cry, Cry, Cry
TTITLE2=Folsom Prison Blues
TTITLE3=Luther Played the Boogie
TTITLE4=Get Rhythm
TTITLE5=I Walk the Line
TTITLE6=Home of the Blues
TTITLE7=Give My Love to Rose
TTITLE8=Rock Island Line
TTITLE9=Doin' My Time
TTITLE10=Big River
TTITLE11=Ballad of a Teenage Queen
TTITLE12=Guess Things Happen That Way
TTITLE13=The Ways of a Woman in Love
TTITLE14=Thanks a Lot
TTITLE15=Oh, What a Dream
TTITLE16=What Do I care
TTITLE17=All Over Again
TTITLE18=I Still Miss Someone
TTITLE19=I'd Just Be Fool Enough (To Fall)
TTITLE20=Walking the Blues
TTITLE21=Frankie's Man, Johnny
TTITLE22=Tennessee Flat-Top Box
TTITLE23=Sing It Pretty, Sue
TTITLE24=Pickin' Time
TTITLE25=Five Feet High and Rising
TTITLE26=The Old Account
TTITLE27=(There'll Be) Peace in the Valley (for me)
TTITLE28=Were You There (When They Crucified My Lord)
EXTD=Colombia/Legacy - C3K 47991\nDisk 1 of 3
EXTT0=
EXTT1=
EXTT2=
EXTT3=
EXTT4=
EXTT5=
EXTT6=
EXTT7=
EXTT8=
EXTT9=
EXTT10=
EXTT11=
EXTT12=
EXTT13=
EXTT14=
EXTT15=
EXTT16=
EXTT17=
EXTT18=
EXTT19=
EXTT20=
EXTT21=
EXTT22=
EXTT23=
EXTT24=
EXTT25=
EXTT26=
EXTT27=
EXTT28=
PLAYORDER=
